# Blender v2.93.4 OBJ File: 'Flat Block.blend'
# www.blender.org
mtllib Flat Block.mtl
o Flat_Block_Cube
v 1.950000 0.450000 -1.000000
v 1.950000 0.500000 -0.950000
v 2.000000 0.450000 -0.950000
v 1.950000 0.469134 -0.996194
v 1.950000 0.485355 -0.985355
v 1.969134 0.450000 -0.996194
v 1.969614 0.469614 -0.991601
v 1.968619 0.482813 -0.982813
v 1.978868 0.478868 -0.978868
v 1.969134 0.496194 -0.950000
v 1.985355 0.485355 -0.950000
v 1.950000 0.496194 -0.969134
v 1.969614 0.491601 -0.969614
v 1.982813 0.482813 -0.968619
v 1.996194 0.450000 -0.969134
v 1.985355 0.450000 -0.985355
v 1.996194 0.469134 -0.950000
v 1.991601 0.469614 -0.969614
v 1.982813 0.468619 -0.982813
v 1.950000 -0.500000 -0.950000
v 1.950000 -0.450000 -1.000000
v 2.000000 -0.450000 -0.950000
v 1.950000 -0.496194 -0.969134
v 1.950000 -0.485355 -0.985355
v 1.969134 -0.496194 -0.950000
v 1.969614 -0.491601 -0.969614
v 1.968619 -0.482813 -0.982813
v 1.978868 -0.478868 -0.978868
v 1.969134 -0.450000 -0.996194
v 1.985355 -0.450000 -0.985355
v 1.950000 -0.469134 -0.996194
v 1.969614 -0.469614 -0.991601
v 1.982813 -0.468619 -0.982813
v 1.996194 -0.469134 -0.950000
v 1.985355 -0.485355 -0.950000
v 1.996194 -0.450000 -0.969134
v 1.991601 -0.469614 -0.969614
v 1.982813 -0.482813 -0.968619
v 2.000000 0.450000 0.950000
v 1.950000 0.500000 0.950000
v 1.950000 0.450000 1.000000
v 1.996194 0.469134 0.950000
v 1.985355 0.485355 0.950000
v 1.996194 0.450000 0.969134
v 1.991601 0.469614 0.969614
v 1.982813 0.482813 0.968619
v 1.978868 0.478868 0.978868
v 1.950000 0.496194 0.969134
v 1.950000 0.485355 0.985355
v 1.969134 0.496194 0.950000
v 1.969614 0.491601 0.969614
v 1.968619 0.482813 0.982813
v 1.969134 0.450000 0.996194
v 1.985355 0.450000 0.985355
v 1.950000 0.469134 0.996194
v 1.969614 0.469614 0.991601
v 1.982813 0.468619 0.982813
v 2.000000 -0.450000 0.950000
v 1.950000 -0.450000 1.000000
v 1.950000 -0.500000 0.950000
v 1.996194 -0.450000 0.969134
v 1.985355 -0.450000 0.985355
v 1.996194 -0.469134 0.950000
v 1.991601 -0.469614 0.969614
v 1.982813 -0.468619 0.982813
v 1.978868 -0.478868 0.978868
v 1.950000 -0.469134 0.996194
v 1.950000 -0.485355 0.985355
v 1.969134 -0.450000 0.996194
v 1.969614 -0.469614 0.991601
v 1.968619 -0.482813 0.982813
v 1.969134 -0.496194 0.950000
v 1.985355 -0.485355 0.950000
v 1.950000 -0.496194 0.969134
v 1.969614 -0.491601 0.969614
v 1.982813 -0.482813 0.968619
v -1.950000 0.450000 -1.000000
v -2.000000 0.450000 -0.950000
v -1.950000 0.500000 -0.950000
v -1.969134 0.450000 -0.996194
v -1.985355 0.450000 -0.985355
v -1.950000 0.469134 -0.996194
v -1.969614 0.469614 -0.991601
v -1.982813 0.468619 -0.982813
v -1.978868 0.478868 -0.978868
v -1.996194 0.469134 -0.950000
v -1.985355 0.485355 -0.950000
v -1.996194 0.450000 -0.969134
v -1.991601 0.469614 -0.969614
v -1.982813 0.482813 -0.968619
v -1.950000 0.496194 -0.969134
v -1.950000 0.485355 -0.985355
v -1.969134 0.496194 -0.950000
v -1.969614 0.491601 -0.969614
v -1.968619 0.482813 -0.982813
v -2.000000 -0.450000 -0.950000
v -1.950000 -0.450000 -1.000000
v -1.950000 -0.500000 -0.950000
v -1.996194 -0.450000 -0.969134
v -1.985355 -0.450000 -0.985355
v -1.996194 -0.469134 -0.950000
v -1.991601 -0.469614 -0.969614
v -1.982813 -0.468619 -0.982813
v -1.978868 -0.478868 -0.978868
v -1.950000 -0.469134 -0.996194
v -1.950000 -0.485355 -0.985355
v -1.969134 -0.450000 -0.996194
v -1.969614 -0.469614 -0.991601
v -1.968619 -0.482813 -0.982813
v -1.969134 -0.496194 -0.950000
v -1.985355 -0.485355 -0.950000
v -1.950000 -0.496194 -0.969134
v -1.969614 -0.491601 -0.969614
v -1.982813 -0.482813 -0.968619
v -2.000000 0.450000 0.950000
v -1.950000 0.450000 1.000000
v -1.950000 0.500000 0.950000
v -1.996194 0.450000 0.969134
v -1.985355 0.450000 0.985355
v -1.996194 0.469134 0.950000
v -1.991601 0.469614 0.969614
v -1.982813 0.468619 0.982813
v -1.978868 0.478868 0.978868
v -1.950000 0.469134 0.996194
v -1.950000 0.485355 0.985355
v -1.969134 0.450000 0.996194
v -1.969614 0.469614 0.991601
v -1.968619 0.482813 0.982813
v -1.969134 0.496194 0.950000
v -1.985355 0.485355 0.950000
v -1.950000 0.496194 0.969134
v -1.969614 0.491601 0.969614
v -1.982813 0.482813 0.968619
v -1.950000 -0.500000 0.950000
v -1.950000 -0.450000 1.000000
v -2.000000 -0.450000 0.950000
v -1.950000 -0.496194 0.969134
v -1.950000 -0.485355 0.985355
v -1.969134 -0.496194 0.950000
v -1.969614 -0.491601 0.969614
v -1.968619 -0.482813 0.982813
v -1.978868 -0.478868 0.978868
v -1.969134 -0.450000 0.996194
v -1.985355 -0.450000 0.985355
v -1.950000 -0.469134 0.996194
v -1.969614 -0.469614 0.991601
v -1.982813 -0.468619 0.982813
v -1.996194 -0.469134 0.950000
v -1.985355 -0.485355 0.950000
v -1.996194 -0.450000 0.969134
v -1.991601 -0.469614 0.969614
v -1.982813 -0.482813 0.968619
vt 0.508332 0.824935
vt 0.508331 0.175065
vt 0.824935 0.175065
vt 0.824935 0.824935
vt 0.824935 0.841598
vt 0.824935 0.991568
vt 0.508332 0.991568
vt 0.508332 0.841598
vt 0.841598 0.175065
vt 0.991568 0.175065
vt 0.991568 0.824935
vt 0.841598 0.824935
vt 0.325035 0.175065
vt 0.325035 0.824935
vt 0.008432 0.824935
vt 0.008432 0.175065
vt 0.508331 0.158402
vt 0.508331 0.008432
vt 0.824935 0.008432
vt 0.824935 0.158402
vt 0.341698 0.175065
vt 0.338510 0.175065
vt 0.338430 0.171797
vt 0.341698 0.171877
vt 0.333367 0.175065
vt 0.333367 0.171963
vt 0.338596 0.166733
vt 0.341698 0.166733
vt 0.333367 0.170255
vt 0.325035 0.171877
vt 0.328303 0.171797
vt 0.328223 0.175065
vt 0.325035 0.166733
vt 0.328137 0.166733
vt 0.329845 0.166733
vt 0.505143 0.008432
vt 0.505063 0.005163
vt 0.508331 0.005243
vt 0.500000 0.008432
vt 0.500000 0.005329
vt 0.505229 0.000100
vt 0.508331 0.000100
vt 0.500000 0.003621
vt 0.505143 0.175065
vt 0.505063 0.171797
vt 0.508331 0.171877
vt 0.500000 0.175065
vt 0.500000 0.171963
vt 0.505229 0.166733
vt 0.508331 0.166733
vt 0.500000 0.167907
vt 0.491668 0.175065
vt 0.491668 0.171877
vt 0.494936 0.171797
vt 0.494856 0.175065
vt 0.491668 0.166733
vt 0.494771 0.166733
vt 0.508331 0.161590
vt 0.505063 0.161670
vt 0.505143 0.158402
vt 0.500000 0.161504
vt 0.500000 0.158402
vt 0.824935 0.005243
vt 0.828203 0.005163
vt 0.828123 0.008432
vt 0.824935 0.000100
vt 0.828037 0.000100
vt 0.833266 0.005329
vt 0.833266 0.008432
vt 0.829745 0.000100
vt 0.005243 0.175065
vt 0.005163 0.171797
vt 0.008432 0.171877
vt 0.000100 0.175065
vt 0.000100 0.171963
vt 0.005329 0.166733
vt 0.008432 0.166733
vt 0.000100 0.170255
vt 0.991568 0.171877
vt 0.994837 0.171797
vt 0.994757 0.175065
vt 0.991568 0.166733
vt 0.994671 0.166733
vt 0.999900 0.171962
vt 0.999900 0.175065
vt 0.996378 0.166733
vt 0.828123 0.158402
vt 0.828203 0.161670
vt 0.824935 0.161590
vt 0.833266 0.158402
vt 0.833266 0.161504
vt 0.828037 0.166733
vt 0.824935 0.166733
vt 0.832093 0.166733
vt 0.838410 0.175065
vt 0.838330 0.171797
vt 0.841598 0.171877
vt 0.833266 0.175065
vt 0.833266 0.171963
vt 0.838496 0.166733
vt 0.841598 0.166733
vt 0.824935 0.171877
vt 0.828203 0.171797
vt 0.828123 0.175065
vt 0.341698 0.824935
vt 0.341698 0.828124
vt 0.338430 0.828203
vt 0.338510 0.824935
vt 0.341698 0.833267
vt 0.338596 0.833267
vt 0.333367 0.828037
vt 0.333367 0.824935
vt 0.336888 0.833267
vt 0.508332 0.994757
vt 0.505063 0.994837
vt 0.505143 0.991568
vt 0.508332 0.999900
vt 0.505229 0.999900
vt 0.500000 0.994671
vt 0.500000 0.991568
vt 0.503521 0.999900
vt 0.328223 0.824935
vt 0.328303 0.828203
vt 0.325035 0.828123
vt 0.328137 0.833267
vt 0.325035 0.833267
vt 0.333367 0.829745
vt 0.505143 0.841598
vt 0.505063 0.838330
vt 0.508332 0.838410
vt 0.500000 0.841598
vt 0.500000 0.838496
vt 0.505229 0.833267
vt 0.508332 0.833267
vt 0.501174 0.833267
vt 0.491668 0.824935
vt 0.494857 0.824935
vt 0.494936 0.828203
vt 0.491668 0.828124
vt 0.500000 0.824935
vt 0.500000 0.828037
vt 0.494771 0.833267
vt 0.491668 0.833267
vt 0.508332 0.828123
vt 0.505063 0.828203
vt 0.505143 0.824935
vt 0.828123 0.991568
vt 0.828203 0.994836
vt 0.824935 0.994757
vt 0.833267 0.991568
vt 0.833267 0.994671
vt 0.828037 0.999900
vt 0.824935 0.999900
vt 0.833267 0.996379
vt 0.994757 0.824935
vt 0.994836 0.828203
vt 0.991568 0.828123
vt 0.999900 0.824935
vt 0.999900 0.828037
vt 0.994671 0.833267
vt 0.991568 0.833267
vt 0.999900 0.829745
vt 0.008432 0.828123
vt 0.005163 0.828203
vt 0.005243 0.824935
vt 0.008432 0.833267
vt 0.005329 0.833267
vt 0.000100 0.828037
vt 0.000100 0.824935
vt 0.003621 0.833267
vt 0.828123 0.824935
vt 0.828203 0.828203
vt 0.824935 0.828123
vt 0.833267 0.824935
vt 0.833266 0.828037
vt 0.828037 0.833267
vt 0.824935 0.833267
vt 0.833267 0.832093
vt 0.841598 0.828123
vt 0.838330 0.828203
vt 0.838410 0.824935
vt 0.841598 0.833267
vt 0.838496 0.833267
vt 0.824935 0.838410
vt 0.828203 0.838330
vt 0.828123 0.841598
vt 0.833267 0.838496
vt 0.833267 0.841598
vn 0.0000 -1.0000 0.0000
vn -1.0000 0.0000 0.0000
vn 0.0000 0.0000 1.0000
vn 0.0000 1.0000 0.0000
vn 1.0000 0.0000 0.0000
vn 0.2049 0.2049 -0.9571
vn 0.1818 0.5500 -0.8152
vn 0.5500 0.1818 -0.8152
vn 0.4931 0.4931 -0.7167
vn 0.2049 0.9571 -0.2049
vn 0.5500 0.8152 -0.1818
vn 0.1818 0.8152 -0.5499
vn 0.4931 0.7167 -0.4931
vn 0.9571 0.2049 -0.2049
vn 0.8152 0.1818 -0.5500
vn 0.8152 0.5499 -0.1818
vn 0.7167 0.4931 -0.4931
vn 0.2049 -0.9571 -0.2049
vn 0.1818 -0.8152 -0.5499
vn 0.5499 -0.8152 -0.1818
vn 0.4931 -0.7167 -0.4931
vn 0.2049 -0.2049 -0.9571
vn 0.5500 -0.1818 -0.8152
vn 0.1818 -0.5500 -0.8152
vn 0.4931 -0.4931 -0.7167
vn 0.9571 -0.2049 -0.2049
vn 0.8152 -0.5499 -0.1818
vn 0.8152 -0.1818 -0.5500
vn 0.7167 -0.4931 -0.4931
vn 0.9571 0.2049 0.2049
vn 0.8152 0.5499 0.1818
vn 0.8152 0.1818 0.5500
vn 0.7167 0.4931 0.4931
vn 0.2049 0.9571 0.2049
vn 0.1818 0.8152 0.5499
vn 0.5499 0.8152 0.1818
vn 0.4931 0.7167 0.4931
vn 0.2049 0.2049 0.9571
vn 0.5500 0.1818 0.8152
vn 0.1818 0.5500 0.8152
vn 0.4931 0.4931 0.7167
vn 0.9571 -0.2049 0.2049
vn 0.8152 -0.1818 0.5500
vn 0.8152 -0.5499 0.1818
vn 0.7167 -0.4931 0.4931
vn 0.2049 -0.2049 0.9571
vn 0.1818 -0.5500 0.8152
vn 0.5500 -0.1818 0.8152
vn 0.4931 -0.4931 0.7167
vn 0.2049 -0.9571 0.2049
vn 0.5500 -0.8152 0.1818
vn 0.1818 -0.8152 0.5499
vn 0.4931 -0.7167 0.4931
vn -0.2049 0.2049 -0.9571
vn -0.5500 0.1818 -0.8152
vn -0.1818 0.5500 -0.8152
vn -0.4931 0.4931 -0.7167
vn -0.9571 0.2049 -0.2049
vn -0.8152 0.5499 -0.1818
vn -0.8152 0.1818 -0.5500
vn -0.7167 0.4931 -0.4931
vn -0.2049 0.9571 -0.2049
vn -0.1818 0.8152 -0.5499
vn -0.5499 0.8152 -0.1818
vn -0.4931 0.7167 -0.4931
vn -0.9571 -0.2049 -0.2049
vn -0.8152 -0.1818 -0.5500
vn -0.8152 -0.5499 -0.1818
vn -0.7167 -0.4931 -0.4931
vn -0.2049 -0.2049 -0.9571
vn -0.1818 -0.5500 -0.8152
vn -0.5500 -0.1818 -0.8152
vn -0.4931 -0.4931 -0.7167
vn -0.2049 -0.9571 -0.2049
vn -0.5500 -0.8152 -0.1818
vn -0.1818 -0.8152 -0.5499
vn -0.4931 -0.7167 -0.4931
vn -0.9571 0.2049 0.2049
vn -0.8152 0.1818 0.5500
vn -0.8152 0.5499 0.1818
vn -0.7167 0.4931 0.4931
vn -0.2049 0.2049 0.9571
vn -0.1818 0.5500 0.8152
vn -0.5500 0.1818 0.8152
vn -0.4931 0.4931 0.7167
vn -0.2049 0.9571 0.2049
vn -0.5500 0.8152 0.1818
vn -0.1818 0.8152 0.5499
vn -0.4931 0.7167 0.4931
vn -0.2049 -0.9571 0.2049
vn -0.1818 -0.8152 0.5499
vn -0.5499 -0.8152 0.1818
vn -0.4931 -0.7167 0.4931
vn -0.2049 -0.2049 0.9571
vn -0.5500 -0.1818 0.8152
vn -0.1818 -0.5500 0.8152
vn -0.4931 -0.4931 0.7167
vn -0.9571 -0.2049 0.2049
vn -0.8152 -0.5499 0.1818
vn -0.8152 -0.1818 0.5500
vn -0.7167 -0.4931 0.4931
vn -0.1951 -0.9808 0.0000
vn -0.5556 -0.8315 0.0000
vn -0.8315 -0.5556 0.0000
vn -0.9808 -0.1951 0.0000
vn 0.0000 -0.9808 -0.1951
vn 0.0000 -0.8315 -0.5556
vn 0.0000 -0.5556 -0.8315
vn 0.0000 -0.1951 -0.9808
vn 0.9808 0.0000 -0.1951
vn 0.8315 0.0000 -0.5556
vn 0.5556 0.0000 -0.8315
vn 0.1951 0.0000 -0.9808
vn -0.1951 0.0000 0.9808
vn -0.5556 0.0000 0.8315
vn -0.8315 0.0000 0.5556
vn -0.9808 0.0000 0.1951
vn 0.1951 0.0000 0.9808
vn 0.5556 0.0000 0.8315
vn 0.8315 0.0000 0.5556
vn 0.9808 0.0000 0.1951
vn -0.1951 0.0000 -0.9808
vn -0.5556 0.0000 -0.8315
vn -0.8315 0.0000 -0.5556
vn -0.9808 0.0000 -0.1951
vn 0.0000 0.9808 0.1951
vn 0.0000 0.8315 0.5556
vn 0.0000 0.5556 0.8315
vn 0.0000 0.1951 0.9808
vn 0.1951 0.9808 0.0000
vn 0.5556 0.8315 0.0000
vn 0.8315 0.5556 0.0000
vn 0.9808 0.1951 0.0000
vn 0.0000 -0.9808 0.1951
vn 0.0000 -0.8315 0.5556
vn 0.0000 -0.5556 0.8315
vn 0.0000 -0.1951 0.9808
vn -0.1951 0.9808 0.0000
vn -0.5556 0.8315 0.0000
vn -0.8315 0.5556 0.0000
vn -0.9808 0.1951 0.0000
vn 0.0000 0.9808 -0.1951
vn 0.0000 0.8315 -0.5556
vn 0.0000 0.5556 -0.8315
vn 0.0000 0.1951 -0.9808
vn 0.1951 -0.9808 0.0000
vn 0.5556 -0.8315 0.0000
vn 0.8315 -0.5556 0.0000
vn 0.9808 -0.1951 0.0000
vn 0.0000 0.0000 -1.0000
usemtl Flat_Block
s off
f 98/1/1 20/2/1 60/3/1 134/4/1
f 136/5/2 115/6/2 78/7/2 96/8/2
f 59/9/3 41/10/3 116/11/3 135/12/3
f 2/13/4 79/14/4 117/15/4 40/16/4
f 22/17/5 3/18/5 39/19/5 58/20/5
f 1/21/6 4/22/6 7/23/6 6/24/6
f 4/22/7 5/25/7 8/26/7 7/23/7
f 6/24/8 7/23/8 19/27/8 16/28/8
f 7/23/9 8/26/9 9/29/9 19/27/9
f 2/13/10 10/30/10 13/31/10 12/32/10
f 10/30/11 11/33/11 14/34/11 13/31/11
f 12/32/12 13/31/12 8/26/12 5/25/12
f 13/31/13 14/34/13 9/35/13 8/26/13
f 3/18/14 15/36/14 18/37/14 17/38/14
f 15/36/15 16/39/15 19/40/15 18/37/15
f 17/38/16 18/37/16 14/41/16 11/42/16
f 18/37/17 19/40/17 9/43/17 14/41/17
f 20/2/18 23/44/18 26/45/18 25/46/18
f 23/44/19 24/47/19 27/48/19 26/45/19
f 25/46/20 26/45/20 38/49/20 35/50/20
f 26/45/21 27/48/21 28/51/21 38/49/21
f 21/52/22 29/53/22 32/54/22 31/55/22
f 29/53/23 30/56/23 33/57/23 32/54/23
f 31/55/24 32/54/24 27/48/24 24/47/24
f 32/54/25 33/57/25 28/51/25 27/48/25
f 22/17/26 34/58/26 37/59/26 36/60/26
f 34/58/27 35/50/27 38/49/27 37/59/27
f 36/60/28 37/59/28 33/61/28 30/62/28
f 37/59/29 38/49/29 28/51/29 33/61/29
f 39/19/30 42/63/30 45/64/30 44/65/30
f 42/63/31 43/66/31 46/67/31 45/64/31
f 44/65/32 45/64/32 57/68/32 54/69/32
f 45/64/33 46/67/33 47/70/33 57/68/33
f 40/16/34 48/71/34 51/72/34 50/73/34
f 48/71/35 49/74/35 52/75/35 51/72/35
f 50/73/36 51/72/36 46/76/36 43/77/36
f 51/72/37 52/75/37 47/78/37 46/76/37
f 41/10/38 53/79/38 56/80/38 55/81/38
f 53/79/39 54/82/39 57/83/39 56/80/39
f 55/81/40 56/80/40 52/84/40 49/85/40
f 56/80/41 57/83/41 47/86/41 52/84/41
f 58/20/42 61/87/42 64/88/42 63/89/42
f 61/87/43 62/90/43 65/91/43 64/88/43
f 63/89/44 64/88/44 76/92/44 73/93/44
f 64/88/45 65/91/45 66/94/45 76/92/45
f 59/9/46 67/95/46 70/96/46 69/97/46
f 67/95/47 68/98/47 71/99/47 70/96/47
f 69/97/48 70/96/48 65/100/48 62/101/48
f 70/96/49 71/99/49 66/94/49 65/100/49
f 60/3/50 72/102/50 75/103/50 74/104/50
f 72/102/51 73/93/51 76/92/51 75/103/51
f 74/104/52 75/103/52 71/99/52 68/98/52
f 75/103/53 76/92/53 66/94/53 71/99/53
f 77/105/54 80/106/54 83/107/54 82/108/54
f 80/106/55 81/109/55 84/110/55 83/107/55
f 82/108/56 83/107/56 95/111/56 92/112/56
f 83/107/57 84/110/57 85/113/57 95/111/57
f 78/7/58 86/114/58 89/115/58 88/116/58
f 86/114/59 87/117/59 90/118/59 89/115/59
f 88/116/60 89/115/60 84/119/60 81/120/60
f 89/115/61 90/118/61 85/121/61 84/119/61
f 79/14/62 91/122/62 94/123/62 93/124/62
f 91/122/63 92/112/63 95/111/63 94/123/63
f 93/124/64 94/123/64 90/125/64 87/126/64
f 94/123/65 95/111/65 85/127/65 90/125/65
f 96/8/66 99/128/66 102/129/66 101/130/66
f 99/128/67 100/131/67 103/132/67 102/129/67
f 101/130/68 102/129/68 114/133/68 111/134/68
f 102/129/69 103/132/69 104/135/69 114/133/69
f 97/136/70 105/137/70 108/138/70 107/139/70
f 105/137/71 106/140/71 109/141/71 108/138/71
f 107/139/72 108/138/72 103/142/72 100/143/72
f 108/138/73 109/141/73 104/135/73 103/142/73
f 98/1/74 110/144/74 113/145/74 112/146/74
f 110/144/75 111/134/75 114/133/75 113/145/75
f 112/146/76 113/145/76 109/141/76 106/140/76
f 113/145/77 114/133/77 104/135/77 109/141/77
f 115/6/78 118/147/78 121/148/78 120/149/78
f 118/147/79 119/150/79 122/151/79 121/148/79
f 120/149/80 121/148/80 133/152/80 130/153/80
f 121/148/81 122/151/81 123/154/81 133/152/81
f 116/11/82 124/155/82 127/156/82 126/157/82
f 124/155/83 125/158/83 128/159/83 127/156/83
f 126/157/84 127/156/84 122/160/84 119/161/84
f 127/156/85 128/159/85 123/162/85 122/160/85
f 117/15/86 129/163/86 132/164/86 131/165/86
f 129/163/87 130/166/87 133/167/87 132/164/87
f 131/165/88 132/164/88 128/168/88 125/169/88
f 132/164/89 133/167/89 123/170/89 128/168/89
f 134/4/90 137/171/90 140/172/90 139/173/90
f 137/171/91 138/174/91 141/175/91 140/172/91
f 139/173/92 140/172/92 152/176/92 149/177/92
f 140/172/93 141/175/93 142/178/93 152/176/93
f 135/12/94 143/179/94 146/180/94 145/181/94
f 143/179/95 144/182/95 147/183/95 146/180/95
f 145/181/96 146/180/96 141/175/96 138/174/96
f 146/180/97 147/183/97 142/178/97 141/175/97
f 136/5/98 148/184/98 151/185/98 150/186/98
f 148/184/99 149/177/99 152/176/99 151/185/99
f 150/186/100 151/185/100 147/187/100 144/188/100
f 151/185/101 152/176/101 142/178/101 147/187/101
f 98/1/102 134/4/102 139/173/102 110/144/102
f 110/144/103 139/173/103 149/177/103 111/134/103
f 111/134/104 149/177/104 148/184/104 101/130/104
f 101/130/105 148/184/105 136/5/105 96/8/105
f 20/2/106 98/1/106 112/146/106 23/44/106
f 23/44/107 112/146/107 106/140/107 24/47/107
f 24/47/108 106/140/108 105/137/108 31/55/108
f 31/55/109 105/137/109 97/136/109 21/52/109
f 3/18/110 22/17/110 36/60/110 15/36/110
f 15/36/111 36/60/111 30/62/111 16/39/111
f 16/28/112 30/56/112 29/53/112 6/24/112
f 6/24/113 29/53/113 21/52/113 1/21/113
f 135/12/114 116/11/114 126/157/114 143/179/114
f 143/179/115 126/157/115 119/161/115 144/182/115
f 144/188/116 119/150/116 118/147/116 150/186/116
f 150/186/117 118/147/117 115/6/117 136/5/117
f 41/10/118 59/9/118 69/97/118 53/79/118
f 53/79/119 69/97/119 62/101/119 54/82/119
f 54/69/120 62/90/120 61/87/120 44/65/120
f 44/65/121 61/87/121 58/20/121 39/19/121
f 77/105/122 97/136/122 107/139/122 80/106/122
f 80/106/123 107/139/123 100/143/123 81/109/123
f 81/120/124 100/131/124 99/128/124 88/116/124
f 88/116/125 99/128/125 96/8/125 78/7/125
f 40/16/126 117/15/126 131/165/126 48/71/126
f 48/71/127 131/165/127 125/169/127 49/74/127
f 49/85/128 125/158/128 124/155/128 55/81/128
f 55/81/129 124/155/129 116/11/129 41/10/129
f 2/13/130 40/16/130 50/73/130 10/30/130
f 10/30/131 50/73/131 43/77/131 11/33/131
f 11/42/132 43/66/132 42/63/132 17/38/132
f 17/38/133 42/63/133 39/19/133 3/18/133
f 134/4/134 60/3/134 74/104/134 137/171/134
f 137/171/135 74/104/135 68/98/135 138/174/135
f 138/174/136 68/98/136 67/95/136 145/181/136
f 145/181/137 67/95/137 59/9/137 135/12/137
f 117/15/138 79/14/138 93/124/138 129/163/138
f 129/163/139 93/124/139 87/126/139 130/166/139
f 130/153/140 87/117/140 86/114/140 120/149/140
f 120/149/141 86/114/141 78/7/141 115/6/141
f 79/14/142 2/13/142 12/32/142 91/122/142
f 91/122/143 12/32/143 5/25/143 92/112/143
f 92/112/144 5/25/144 4/22/144 82/108/144
f 82/108/145 4/22/145 1/21/145 77/105/145
f 60/3/146 20/2/146 25/46/146 72/102/146
f 72/102/147 25/46/147 35/50/147 73/93/147
f 73/93/148 35/50/148 34/58/148 63/89/148
f 63/89/149 34/58/149 22/17/149 58/20/149
f 97/136/150 77/105/150 1/21/150 21/52/150
